<svg width="398" height="145" viewBox="0 0 398 145" fill="none" xmlns="http://www.w3.org/2000/svg">
<path d="M100 85.5001C91.7553 75.0357 88.1361 71.0068 82 66.9086M82 66.9086C78.4608 64.5448 74.0843 62.158 67.5 58.5001C54.2375 51.1321 34.5848 66.1013 24.4012 76.4549C23.0225 77.8566 23.0902 80.0904 24.4804 81.4806V81.4806C26.3708 83.3709 25.6895 86.581 23.1944 87.5407L21.9999 88.0001C18.4999 89.8334 9.99986 94.7001 3.99986 99.5001C-1.85164 104.181 12.7458 122.876 21.3563 132.301C21.7835 132.768 22.2854 133.163 22.8461 133.457C37.8501 141.339 52.8449 137.282 61.1724 132.865C63.531 131.614 66.4325 131.664 68.7125 133.053C84.0085 142.371 101.352 138.929 111.906 134.367C115.051 133.008 119.102 134.15 122.316 135.337C131.814 138.844 150.005 133.5 154.5 133.5C158.9 133.5 159.288 128.5 158.932 126M82 66.9086C85.0203 54.8563 98.2901 35.3115 127.623 48.802C130.204 49.989 133.291 49.4357 135.311 47.438C150.125 32.7851 182.077 16.0519 219 38.5947M229.5 46C225.963 43.1641 222.46 40.707 219 38.5947M219 38.5947C218.837 19.9656 227.137 -11.1497 261.253 10.052C262.681 10.9399 264.419 11.2593 266.068 10.9262C286.136 6.8718 319.868 9.82276 312.598 51.451C312.536 51.8056 312.506 52.2754 312.865 52.3111C315.464 52.5706 331.324 43.9954 339.542 50.6379C341.342 52.0934 343.459 53.3427 345.771 53.2246C362.155 52.3877 389.672 55.3795 393 73.5C395.841 88.9699 395.755 96.5282 395.101 99.5183C394.874 100.554 394.363 101.538 394.07 102.557C391.452 111.684 385.419 126.766 379 124.5C372.327 122.145 366.887 133.04 361.47 132.995C358.32 132.968 354.911 131.26 352.152 132.78C344.789 136.836 334.476 141.82 330 141.5C323 141 293.5 143.5 294.5 134.5C295.5 125.5 286 140 281 136.5M263.5 12.5L255 22M280 136.5C272.667 138.333 257.6 140.9 256 136.5C254.4 132.1 251 131.333 249.5 131.5L234.446 134.414C234.149 134.471 233.849 134.507 233.547 134.516C229.252 134.653 221.386 134.43 221 132.5C220.5 130 214.5 128 218.5 125M218.5 125C221.7 122.6 224.167 120.667 225 120M218.5 125C201.669 132.19 166.701 142.2 158.932 126M158.5 125C158.633 125.344 158.777 125.677 158.932 126" stroke="#D2C3C3" stroke-width="5"/>
</svg>
